<?xml version="1.0" encoding="UTF-8"?>
<svg width="58px" height="58px" viewBox="0 0 58 58" version="1.1" xmlns="http://www.w3.org/2000/svg" xmlns:xlink="http://www.w3.org/1999/xlink">
    <!-- Generator: Sketch 52.2 (67145) - http://www.bohemiancoding.com/sketch -->
    <title>java-blue</title>
    <desc>Created with Sketch.</desc>
    <g id="java-blue" stroke="none" stroke-width="1" fill="none" fill-rule="evenodd">
        <g id="javaweb_featured" transform="translate(0.000000, 16.000000)" fill="#00AED1">
            <polygon id="Path" points="0 17 5 17 5 21 0 21"></polygon>
            <path d="M5.1,22.5204461 C5.3,22.6171004 5.6,22.6171004 6,22.6171004 C6.9,22.6171004 7.6,22.4237918 7.6,21.2639405 L7.6,5.70260223 L11.9,5.70260223 L11.9,21.4572491 C11.9,24.5501859 10.7,26 6.4,26 C5.9,26 5.5,26 5,25.9033457 L5,22.5204461 L5.1,22.5204461 Z M11.9,3.38289963 L7.7,3.38289963 L7.7,0 L12,0 L12,3.38289963 L11.9,3.38289963 Z" id="Shape" fill-rule="nonzero"></path>
            <path d="M13.4966887,11.0731707 C13.6953642,7.17073171 17.2715232,6 20.7483444,6 C23.8278146,6 27.5033113,6.68292683 27.5033113,10.2926829 L27.5033113,18.195122 C27.5033113,19.5609756 27.602649,20.9268293 28,21.6097561 L23.7284768,21.6097561 C23.5298013,21.1219512 23.4304636,20.6341463 23.4304636,20.1463415 C22.0397351,21.5121951 20.1523179,22 18.2649007,22 C15.2847682,22 13,20.5365854 13,17.5121951 C13.0993377,10.6829268 23.4304636,14.2926829 23.2317881,10.8780488 C23.2317881,9.12195122 21.9403974,8.82926829 20.4503311,8.82926829 C18.8609272,8.82926829 17.7682119,9.51219512 17.6688742,11.0731707 L13.4966887,11.0731707 Z M23.3311258,14.097561 C22.6357616,14.6829268 21.1456954,14.7804878 19.8543046,14.9756098 C18.5629139,15.1707317 17.3708609,15.6585366 17.3708609,17.2195122 C17.3708609,18.7804878 18.5629139,19.1707317 19.9536424,19.1707317 C23.2317881,19.1707317 23.3311258,16.6341463 23.3311258,15.6585366 L23.3311258,14.097561 Z" id="Shape" fill-rule="nonzero"></path>
            <polygon id="Path" points="38.8039216 21 34.1960784 21 29 6 33.4117647 6 36.5490196 16.2580645 36.6470588 16.2580645 39.8823529 6 44 6"></polygon>
            <path d="M43.4966887,11.0731707 C43.6953642,7.17073171 47.2715232,6 50.7483444,6 C53.8278146,6 57.5033113,6.68292683 57.5033113,10.2926829 L57.5033113,18.195122 C57.5033113,19.5609756 57.602649,20.9268293 58,21.6097561 L53.7284768,21.6097561 C53.5298013,21.1219512 53.4304636,20.6341463 53.4304636,20.1463415 C52.0397351,21.5121951 50.1523179,22 48.2649007,22 C45.2847682,22 43,20.5365854 43,17.5121951 C43.0993377,10.6829268 53.4304636,14.2926829 53.2317881,10.8780488 C53.2317881,9.12195122 51.9403974,8.82926829 50.4503311,8.82926829 C48.8609272,8.82926829 47.7682119,9.51219512 47.6688742,11.0731707 L43.4966887,11.0731707 Z M53.2317881,14.097561 C52.5364238,14.6829268 51.0463576,14.7804878 49.7549669,14.9756098 C48.4635762,15.1707317 47.2715232,15.6585366 47.2715232,17.2195122 C47.2715232,18.7804878 48.4635762,19.1707317 49.8543046,19.1707317 C53.1324503,19.1707317 53.3311258,16.6341463 53.3311258,15.6585366 L53.3311258,14.097561 L53.2317881,14.097561 Z" id="Shape" fill-rule="nonzero"></path>
        </g>
    </g>
</svg>